<?xml version="1.0" standalone="no"?><!DOCTYPE svg PUBLIC "-//W3C//DTD SVG 1.1//EN" "http://www.w3.org/Graphics/SVG/1.1/DTD/svg11.dtd"><svg t="1583802964045" class="icon" viewBox="0 0 1024 1024" version="1.1" xmlns="http://www.w3.org/2000/svg" p-id="716" width="162" height="162" xmlns:xlink="http://www.w3.org/1999/xlink"><defs><style type="text/css"></style></defs><path d="M512.170667 9.173333C234.325333 9.173333 8.32 235.178667 8.32 513.024s226.005333 503.893333 503.850667 503.893333 503.850667-226.048 503.850666-503.893333C1015.978667 235.178667 790.016 9.173333 512.170667 9.173333z m0 965.077334c-254.293333 0-461.184-206.933333-461.184-461.226667 0-254.293333 206.890667-461.184 461.184-461.184s461.184 206.890667 461.184 461.184c-0.042667 254.293333-206.890667 461.226667-461.184 461.226667z" p-id="717" fill="#bfbfbf"></path><path d="M469.674667 407.338667c0-57.557333-46.848-104.362667-104.405334-104.362667S260.906667 349.781333 260.906667 407.338667s46.805333 104.405333 104.362666 104.405333 104.405333-46.848 104.405334-104.405333z m-166.101334 0c0-34.005333 27.690667-61.696 61.696-61.696 34.048 0 61.738667 27.690667 61.738667 61.696 0 34.048-27.690667 61.738667-61.738667 61.738666a61.781333 61.781333 0 0 1-61.696-61.738666zM660.010667 302.976c-57.6 0-104.405333 46.805333-104.405334 104.362667s46.848 104.405333 104.405334 104.405333 104.362667-46.848 104.362666-104.405333-46.848-104.362667-104.362666-104.362667z m0 166.101333a61.781333 61.781333 0 0 1-61.738667-61.738666 61.738667 61.738667 0 1 1 61.738667 61.738666zM512.128 596.608c-72.362667 0-138.496 52.864-168.490667 134.741333a21.333333 21.333333 0 0 0 40.106667 14.677334c23.722667-64.853333 74.112-106.752 128.384-106.752s104.661333 41.898667 128.384 106.752a21.376 21.376 0 0 0 40.106667-14.677334c-29.952-81.877333-96.085333-134.741333-168.490667-134.741333z" p-id="718" fill="#bfbfbf"></path></svg>